<?xml version="1.0" encoding="UTF-8"?>
<svg id="Camada_2" data-name="Camada 2" xmlns="http://www.w3.org/2000/svg" viewBox="0 0 38 38">
  <defs>
    <style>
      .cls-1 {
        fill: #f3ffd2;
      }

      .cls-2 {
        fill: #0d2d0a;
      }
    </style>
  </defs>
  <g id="GERAL_MARCA" data-name="GERAL MARCA">
    <rect class="cls-2" width="38" height="38" rx="2.56" ry="2.56"/>
    <path class="cls-1" d="M32.4,13.74c-.18-1.29-.57-2.25-.62-2.36l-1.21-2.88-1.33-3.17-.68,3.3c-3.84-1.03-7.31-1.18-8.8-1.19-.23,0-.41,0-.54,0-.14,0-.22,0-.22,0,0,0-.09,0-.27,0-.14,0-.32,0-.54,0-1.51.01-4.94.18-8.73,1.19l-.68-3.3-1.33,3.17-1.21,2.89c-.05.11-.44,1.07-.62,2.36-.24,1.74.03,3.32.79,4.55.49.81,1.16,1.46,2,1.95.39,3.27,2.27,9.41,10.6,12.42,8.31-3,10.2-9.13,10.59-12.41.85-.49,1.53-1.14,2.03-1.96.75-1.24,1.02-2.81.79-4.56ZM29.68,18.91c-.76.61-1.75,1.01-2.96,1.21l-3.03,5.01.79,1.97-3.59,1.96-.2.11-.03.02v-.02h-3.31v.02s-.04-.02-.04-.02l-.31-.17-3.48-1.89.8-1.97-3.03-5.01h0c-1.23-.2-2.22-.61-2.98-1.23-.4-.32-.73-.71-1-1.14-1.52-2.5-.16-5.81-.1-5.95l1.11-2.65.09-.22s0,0,0,0l.63,3.05c.09.44.5,1.94,1.91,2.85.42.27.85.43,1.24.53.4.1.77.13,1.06.13h.59l.11.21.39.71.99,1.83-2.66-.83c-.79-.07-1.78-.31-2.77-.94-.57-.36-1.02-.78-1.39-1.22.03.52.15,1.04.43,1.5.53.87,1.6,1.38,3.17,1.53l.22-.13,4.13,6.81-.51,1.27,1.84,1h2.39l1.84-1-.51-1.27,4.13-6.81.22.13c1.58-.15,2.64-.66,3.17-1.53.28-.46.4-.98.43-1.5-.37.44-.82.86-1.39,1.22-.99.63-1.98.87-2.77.94l-2.66.83.99-1.83.39-.71.11-.21h.45s.14,0,.14,0c.29,0,.66-.03,1.06-.13.39-.1.82-.26,1.24-.53,1.42-.9,1.82-2.41,1.91-2.85l.63-3.05h.01s.07.17.07.17l1.14,2.7c.06.14,1.42,3.45-.1,5.95-.27.45-.61.83-1.02,1.16ZM18.97,8.93l1.13,5.46,2.86,1.06-.05.1-2.8,1.04-1.1,5.45-1.1-5.45-2.8-1.04-.05-.1,2.86-1.06,1.07-5.46Z"/>
  </g>
</svg>