<?xml version="1.0" encoding="UTF-8"?>
<svg id="Camada_2" data-name="Camada 2" xmlns="http://www.w3.org/2000/svg" viewBox="0 0 693.69 261.53">
  <defs>
    <style>
      .cls-1 {
        fill: #fff;
      }
    </style>
  </defs>
  <g id="Camada_6" data-name="Camada 6">
    <g>
      <g>
        <g>
          <path class="cls-1" d="M349.99,238.05v2.68l-4.34.21v-2.43c0-2.38-.89-3.45-2.55-3.45s-2.55,1.06-2.55,3.02v16.25c0,1.96.89,3.02,2.55,3.02s2.55-1.06,2.55-3.45v-3.32l4.34.21v3.57c0,4.51-2.59,7.15-7.02,7.15s-6.93-2.64-6.93-7.15v-16.34c0-4.51,2.55-7.15,6.93-7.15s7.02,2.64,7.02,7.15Z"/>
          <path class="cls-1" d="M369.69,238.43v15.57c0,4.68-2.76,7.53-7.27,7.53s-7.27-2.85-7.27-7.53v-15.57c0-4.68,2.76-7.53,7.27-7.53s7.27,2.85,7.27,7.53ZM359.65,238.47v15.48c0,2.21.98,3.4,2.77,3.4s2.76-1.19,2.76-3.4v-15.48c0-2.21-.98-3.4-2.76-3.4s-2.77,1.19-2.77,3.4Z"/>
          <path class="cls-1" d="M386.02,261.1l-5.91-19.74h-.09v19.74h-4.25v-29.78h5.02l5.32,17.74h.09v-17.74h4.25v29.78h-4.42Z"/>
          <path class="cls-1" d="M401.51,235.49v8.42h6.59v4.17h-6.59v8.85h8.17v4.17h-12.68v-29.78h12.68v4.17h-8.17Z"/>
          <path class="cls-1" d="M429.88,261.1h-4.76l-3.7-10.46h-.09l-3.49,10.46h-4.68l5.7-15.44-5.36-14.34h4.76l3.32,9.49h.09l3.19-9.49h4.68l-5.36,14.51,5.7,15.27Z"/>
          <path class="cls-1" d="M444.22,261.1l-.98-6.76h-4.98l-.98,6.76h-4.51l5.15-29.78h5.74l5.15,29.78h-4.59ZM440.99,225.88c.85.47,1.19.6,1.57.6.64,0,1.11-.34,1.7-1.19l1.7,1.57c-1.06,1.83-2,2.51-3.32,2.51-.64,0-1.11-.17-2-.68-.85-.47-1.19-.6-1.57-.6-.64,0-1.11.34-1.7,1.19l-1.7-1.57c1.06-1.83,2-2.51,3.32-2.51.64,0,1.11.17,2,.68ZM438.86,250.25h3.79l-1.83-12.55h-.13l-1.83,12.55Z"/>
          <path class="cls-1" d="M467.62,238.43v15.57c0,4.68-2.77,7.53-7.27,7.53s-7.27-2.85-7.27-7.53v-15.57c0-4.68,2.77-7.53,7.27-7.53s7.27,2.85,7.27,7.53ZM457.58,238.47v15.48c0,2.21.98,3.4,2.77,3.4s2.77-1.19,2.77-3.4v-15.48c0-2.21-.98-3.4-2.77-3.4s-2.77,1.19-2.77,3.4Z"/>
          <path class="cls-1" d="M493.74,261.1l-5.91-19.74h-.09v19.74h-4.25v-29.78h5.02l5.32,17.74h.09v-17.74h4.25v29.78h-4.42Z"/>
          <path class="cls-1" d="M518.8,238.43v15.57c0,4.68-2.77,7.53-7.27,7.53s-7.27-2.85-7.27-7.53v-15.57c0-4.68,2.77-7.53,7.27-7.53s7.27,2.85,7.27,7.53ZM508.76,238.47v15.48c0,2.21.98,3.4,2.77,3.4s2.77-1.19,2.77-3.4v-15.48c0-2.21-.98-3.4-2.77-3.4s-2.77,1.19-2.77,3.4Z"/>
          <path class="cls-1" d="M531.05,248.51h-2.08v12.59h-4.51v-29.78h6.51c4.85,0,7.49,2.64,7.49,7.53v2.13c0,3.15-1.11,5.36-3.19,6.55l4.13,13.57h-4.76l-3.57-12.59ZM528.97,244.34h1.83c2.17,0,3.15-1.15,3.15-3.66v-1.53c0-2.51-.98-3.66-3.15-3.66h-1.83v8.85Z"/>
          <path class="cls-1" d="M551.35,235.58v25.52h-4.51v-25.52h-4.81v-4.25h14.12v4.25h-4.81Z"/>
          <path class="cls-1" d="M565.21,235.49v8.42h6.59v4.17h-6.59v8.85h8.17v4.17h-12.68v-29.78h12.68v4.17h-8.17Z"/>
          <path class="cls-1" d="M594.99,231.32c4.68,0,7.19,2.64,7.19,7.53v.55c0,3.32-.98,5.28-3.36,6.08v.09c2.81.85,4,3.06,4,6.98v1.02c0,4.89-2.64,7.53-7.49,7.53h-6.64v-29.78h6.3ZM593.21,243.62h1.4c2.17,0,3.06-1.11,3.06-3.62v-.98c0-2.42-.89-3.53-2.85-3.53h-1.62v8.12ZM593.21,256.93h1.96c2.17,0,3.15-1.15,3.15-3.66v-1.66c0-2.64-.98-3.83-3.36-3.83h-1.74v9.15Z"/>
          <path class="cls-1" d="M622.26,238.43v15.57c0,4.68-2.77,7.53-7.27,7.53s-7.27-2.85-7.27-7.53v-15.57c0-4.68,2.77-7.53,7.27-7.53s7.27,2.85,7.27,7.53ZM612.22,238.47v15.48c0,2.21.98,3.4,2.77,3.4s2.77-1.19,2.77-3.4v-15.48c0-2.21-.98-3.4-2.77-3.4s-2.77,1.19-2.77,3.4Z"/>
          <path class="cls-1" d="M631.54,261.1l-5.02-29.78h4.59l3.36,22.72h.09l3.32-22.72h4.51l-5.02,29.78h-5.83Z"/>
          <path class="cls-1" d="M647.32,261.1v-29.78h4.51v29.78h-4.51Z"/>
          <path class="cls-1" d="M668.63,261.1l-5.91-19.74h-.09v19.74h-4.25v-29.78h5.02l5.32,17.74h.09v-17.74h4.25v29.78h-4.42Z"/>
          <path class="cls-1" d="M693.69,238.43v15.57c0,4.68-2.76,7.53-7.27,7.53s-7.27-2.85-7.27-7.53v-15.57c0-4.68,2.76-7.53,7.27-7.53s7.27,2.85,7.27,7.53ZM683.65,238.47v15.48c0,2.21.98,3.4,2.77,3.4s2.76-1.19,2.76-3.4v-15.48c0-2.21-.98-3.4-2.76-3.4s-2.77,1.19-2.77,3.4Z"/>
        </g>
        <g>
          <path class="cls-1" d="M446.76,115.44h-46.06v-30.79c0-8.95-.49-14.54-1.48-16.76-.98-2.22-3.16-3.33-6.51-3.33-3.79,0-6.2,1.35-7.22,4.05-1.02,2.7-1.53,8.53-1.53,17.5v82.27c0,8.61.51,14.22,1.53,16.85,1.02,2.63,3.32,3.94,6.89,3.94s5.67-1.32,6.73-3.95c1.06-2.63,1.59-8.81,1.59-18.54v-22.26h46.06v6.9c0,18.33-1.3,31.34-3.88,39-2.59,7.67-8.32,14.39-17.18,20.16-8.86,5.77-19.79,8.66-32.77,8.66s-24.62-2.44-33.37-7.33c-8.75-4.89-14.55-11.65-17.4-20.29-2.84-8.64-4.27-21.64-4.27-39v-51.75c0-12.76.44-22.34,1.31-28.72.88-6.38,3.48-12.53,7.82-18.43,4.34-5.91,10.36-10.56,18.05-13.95,7.69-3.39,16.54-5.09,26.53-5.09,13.57,0,24.76,2.62,33.59,7.87,8.82,5.24,14.62,11.78,17.4,19.61,2.77,7.83,4.16,20.01,4.16,36.55v16.83Z"/>
          <path class="cls-1" d="M566.12,38.31v177.13h-40.37l-23.96-80.52v80.52h-38.51V38.31h38.51l25.82,79.76V38.31h38.51Z"/>
          <path class="cls-1" d="M584.61,38.31h45.95c14.51,0,25.51,1.13,32.99,3.39,7.48,2.26,13.51,6.83,18.11,13.72,4.59,6.89,6.89,17.98,6.89,33.29,0,10.35-1.62,17.57-4.87,21.65-3.25,4.08-9.65,7.22-19.2,9.4,10.65,2.41,17.87,6.4,21.66,11.99,3.79,5.58,5.69,14.14,5.69,25.67v16.42c0,11.97-1.37,20.84-4.1,26.6-2.73,5.77-7.09,9.71-13.07,11.82-5.98,2.12-18.23,3.17-36.76,3.17h-53.28V38.31ZM630.67,68.61v39.39c1.97-.07,3.5-.11,4.59-.11,4.52,0,7.4-1.11,8.64-3.34,1.24-2.22,1.86-8.59,1.86-19.09,0-5.54-.51-9.43-1.53-11.65-1.02-2.22-2.35-3.63-3.99-4.21-1.64-.58-4.83-.91-9.57-.98ZM630.67,135.57v49.56c6.49-.22,10.63-1.24,12.42-3.06,1.79-1.82,2.68-6.31,2.68-13.46v-16.52c0-7.59-.8-12.18-2.41-13.79-1.61-1.6-5.84-2.52-12.69-2.73Z"/>
        </g>
      </g>
      <g>
        <path class="cls-1" d="M302.69,36.06L287.52,0l-7.9,38.3c-1.13,5.49-6.21,24.3-23.92,35.59-10.68,6.8-21.57,8.24-28.85,8.24h-7.32s-18.66,34.31-18.66,34.31l33.26-10.38c9.86-.9,22.29-3.86,34.61-11.71,7.11-4.53,12.81-9.8,17.38-15.26-.39,6.49-1.92,13.03-5.41,18.72-6.64,10.84-19.99,17.25-39.68,19.1l-2.69-1.63-51.59,85.17,6.4,15.87-22.97,12.51h-29.91l-22.97-12.5,6.4-15.87-51.59-85.17-2.7,1.63c-19.69-1.85-33.04-8.26-39.68-19.1-3.49-5.69-5.02-12.24-5.41-18.72,4.56,5.45,10.26,10.73,17.38,15.26,12.33,7.85,24.75,10.81,34.61,11.71l33.26,10.38-18.66-34.32h-7.23s-.07.01-.1.01c-7.28,0-18.16-1.44-28.84-8.24-17.72-11.29-22.79-30.09-23.92-35.58L22.9,0,7.73,36.07c-.73,1.75-17.77,43.13,1.22,74.32,9.7,15.93,26.41,25.88,49.75,29.65h0s37.93,62.62,37.93,62.62l-9.94,24.67,43.52,23.68,3.84,2.1.43.23.12-.23h41.21l.12.22.41-.22,2.45-1.33,44.93-24.45-9.94-24.67,37.92-62.61h0c23.35-3.78,40.06-13.73,49.76-29.66,18.99-31.19,1.95-72.57,1.22-74.32Z"/>
        <polygon class="cls-1" points="155.21 163.99 168.93 95.82 206 82.1 168.93 68.38 154.84 .15 141.49 68.38 104.42 82.1 141.49 95.82 155.21 163.99"/>
      </g>
    </g>
  </g>
</svg>