<?xml version="1.0" encoding="UTF-8"?>
<svg id="Camada_2" data-name="Camada 2" xmlns="http://www.w3.org/2000/svg" viewBox="0 0 357.65 553.18">
  <defs>
    <style>
      .cls-1 {
        fill: #fff;
      }
    </style>
  </defs>
  <g id="Camada_6" data-name="Camada 6">
    <g>
      <path class="cls-1" d="M333.39,97.03c-2.03-14.83-6.6-25.98-7.12-27.2l-14-33.28L296.9.03l-7.86,38.1c-44.26-11.87-84.37-13.63-101.53-13.78-2.67-.03-4.78-.01-6.27.01-1.66.03-2.53.06-2.53.06,0,0-1.09-.03-3.14-.06-1.56-.03-3.66-.04-6.26,0-17.44.17-57.03,2.02-100.7,13.7L60.77,0l-15.38,36.54-14,33.29c-.52,1.23-5.09,12.38-7.12,27.21-2.75,20.1.39,38.28,9.07,52.54,5.7,9.36,13.43,16.88,23.12,22.5,4.54,37.73,26.22,108.61,122.24,143.25,95.91-34.6,117.65-105.35,122.22-143.12,9.82-5.64,17.63-13.19,23.38-22.63,8.68-14.27,11.82-32.43,9.07-52.55ZM302.05,156.58c-8.74,7.04-20.16,11.7-34.17,13.98l-34.99,57.79,9.17,22.76-41.47,22.57-2.25,1.24-.38.2-.11-.2h-38.03l-.12.22-.4-.22-3.54-1.93-40.17-21.86,9.17-22.77-35.01-57.78h0c-14.13-2.3-25.64-7.04-34.4-14.17-4.6-3.74-8.44-8.15-11.52-13.2-17.53-28.79-1.8-66.98-1.12-68.59l12.86-30.55,1.08-2.56s.07-.01.1-.03l7.25,35.23c1.05,5.08,5.72,22.43,22.08,32.84,4.88,3.1,9.8,4.99,14.34,6.12,4.64,1.13,8.88,1.48,12.28,1.48h6.76l1.29,2.38,4.46,8.2,11.47,21.09-30.7-9.58c-9.1-.83-20.56-3.56-31.93-10.81-6.56-4.18-11.82-9.04-16.04-14.07.36,5.98,1.78,12.02,4.99,17.28,6.13,10.01,18.45,15.92,36.62,17.63l2.49-1.5,47.61,78.59-5.9,14.66,21.2,11.52h27.6l21.2-11.54-5.9-14.65,47.6-78.61,2.49,1.5c18.17-1.71,30.5-7.62,36.63-17.63,3.22-5.25,4.63-11.28,4.99-17.28-4.21,5.03-9.47,9.9-16.04,14.09-11.37,7.25-22.84,9.98-31.94,10.81l-30.69,9.58,11.46-21.08,4.46-8.21,1.3-2.39h5.14s1.61.01,1.61.01c3.39,0,7.64-.34,12.27-1.48,4.55-1.12,9.48-3.01,14.36-6.13,16.35-10.4,21.03-27.77,22.08-32.84l7.25-35.14.14.04.79,1.88,13.1,31.15c.68,1.61,16.4,39.8-1.12,68.58-3.13,5.15-7.06,9.62-11.76,13.4ZM178.49,41.46l13,62.97,32.97,12.19-.63,1.15-32.34,11.97-12.66,62.92-12.66-62.92-32.34-11.97-.63-1.15,32.97-12.19,12.32-62.97Z"/>
      <g>
        <g>
          <path class="cls-1" d="M13.95,529.7v2.68l-4.34.21v-2.43c0-2.38-.89-3.45-2.55-3.45s-2.55,1.06-2.55,3.02v16.25c0,1.96.89,3.02,2.55,3.02s2.55-1.06,2.55-3.45v-3.32l4.34.21v3.57c0,4.51-2.59,7.15-7.02,7.15s-6.93-2.64-6.93-7.15v-16.34c0-4.51,2.55-7.15,6.93-7.15s7.02,2.64,7.02,7.15Z"/>
          <path class="cls-1" d="M33.65,530.08v15.57c0,4.68-2.76,7.53-7.27,7.53s-7.27-2.85-7.27-7.53v-15.57c0-4.68,2.76-7.53,7.27-7.53s7.27,2.85,7.27,7.53ZM23.61,530.12v15.48c0,2.21.98,3.4,2.77,3.4s2.76-1.19,2.76-3.4v-15.48c0-2.21-.98-3.4-2.76-3.4s-2.77,1.19-2.77,3.4Z"/>
          <path class="cls-1" d="M49.99,552.75l-5.91-19.74h-.09v19.74h-4.25v-29.78h5.02l5.32,17.74h.09v-17.74h4.25v29.78h-4.42Z"/>
          <path class="cls-1" d="M65.47,527.14v8.42h6.59v4.17h-6.59v8.85h8.17v4.17h-12.68v-29.78h12.68v4.17h-8.17Z"/>
          <path class="cls-1" d="M93.85,552.75h-4.76l-3.7-10.46h-.09l-3.49,10.46h-4.68l5.7-15.44-5.36-14.34h4.76l3.32,9.49h.09l3.19-9.49h4.68l-5.36,14.51,5.7,15.27Z"/>
          <path class="cls-1" d="M108.19,552.75l-.98-6.76h-4.98l-.98,6.76h-4.51l5.15-29.78h5.74l5.15,29.78h-4.59ZM104.95,517.53c.85.47,1.19.6,1.57.6.64,0,1.11-.34,1.7-1.19l1.7,1.57c-1.06,1.83-2,2.51-3.32,2.51-.64,0-1.11-.17-2-.68-.85-.47-1.19-.6-1.57-.6-.64,0-1.11.34-1.7,1.19l-1.7-1.57c1.06-1.83,2-2.51,3.32-2.51.64,0,1.11.17,2,.68ZM102.83,541.9h3.79l-1.83-12.55h-.13l-1.83,12.55Z"/>
          <path class="cls-1" d="M131.58,530.08v15.57c0,4.68-2.77,7.53-7.27,7.53s-7.27-2.85-7.27-7.53v-15.57c0-4.68,2.77-7.53,7.27-7.53s7.27,2.85,7.27,7.53ZM121.54,530.12v15.48c0,2.21.98,3.4,2.77,3.4s2.77-1.19,2.77-3.4v-15.48c0-2.21-.98-3.4-2.77-3.4s-2.77,1.19-2.77,3.4Z"/>
          <path class="cls-1" d="M157.71,552.75l-5.91-19.74h-.09v19.74h-4.25v-29.78h5.02l5.32,17.74h.09v-17.74h4.25v29.78h-4.42Z"/>
          <path class="cls-1" d="M182.76,530.08v15.57c0,4.68-2.77,7.53-7.27,7.53s-7.27-2.85-7.27-7.53v-15.57c0-4.68,2.77-7.53,7.27-7.53s7.27,2.85,7.27,7.53ZM172.72,530.12v15.48c0,2.21.98,3.4,2.77,3.4s2.77-1.19,2.77-3.4v-15.48c0-2.21-.98-3.4-2.77-3.4s-2.77,1.19-2.77,3.4Z"/>
          <path class="cls-1" d="M195.02,540.16h-2.08v12.59h-4.51v-29.78h6.51c4.85,0,7.49,2.64,7.49,7.53v2.13c0,3.15-1.11,5.36-3.19,6.55l4.13,13.57h-4.76l-3.57-12.59ZM192.93,535.99h1.83c2.17,0,3.15-1.15,3.15-3.66v-1.53c0-2.51-.98-3.66-3.15-3.66h-1.83v8.85Z"/>
          <path class="cls-1" d="M215.31,527.23v25.52h-4.51v-25.52h-4.81v-4.25h14.12v4.25h-4.81Z"/>
          <path class="cls-1" d="M229.18,527.14v8.42h6.59v4.17h-6.59v8.85h8.17v4.17h-12.68v-29.78h12.68v4.17h-8.17Z"/>
          <path class="cls-1" d="M258.96,522.97c4.68,0,7.19,2.64,7.19,7.53v.55c0,3.32-.98,5.28-3.36,6.08v.09c2.81.85,4,3.06,4,6.98v1.02c0,4.89-2.64,7.53-7.49,7.53h-6.64v-29.78h6.3ZM257.17,535.27h1.4c2.17,0,3.06-1.11,3.06-3.62v-.98c0-2.42-.89-3.53-2.85-3.53h-1.62v8.12ZM257.17,548.58h1.96c2.17,0,3.15-1.15,3.15-3.66v-1.66c0-2.64-.98-3.83-3.36-3.83h-1.74v9.15Z"/>
          <path class="cls-1" d="M286.23,530.08v15.57c0,4.68-2.77,7.53-7.27,7.53s-7.27-2.85-7.27-7.53v-15.57c0-4.68,2.77-7.53,7.27-7.53s7.27,2.85,7.27,7.53ZM276.19,530.12v15.48c0,2.21.98,3.4,2.77,3.4s2.77-1.19,2.77-3.4v-15.48c0-2.21-.98-3.4-2.77-3.4s-2.77,1.19-2.77,3.4Z"/>
          <path class="cls-1" d="M295.5,552.75l-5.02-29.78h4.59l3.36,22.72h.09l3.32-22.72h4.51l-5.02,29.78h-5.83Z"/>
          <path class="cls-1" d="M311.28,552.75v-29.78h4.51v29.78h-4.51Z"/>
          <path class="cls-1" d="M332.6,552.75l-5.91-19.74h-.09v19.74h-4.25v-29.78h5.02l5.32,17.74h.09v-17.74h4.25v29.78h-4.42Z"/>
          <path class="cls-1" d="M357.65,530.08v15.57c0,4.68-2.76,7.53-7.27,7.53s-7.27-2.85-7.27-7.53v-15.57c0-4.68,2.76-7.53,7.27-7.53s7.27,2.85,7.27,7.53ZM347.62,530.12v15.48c0,2.21.98,3.4,2.77,3.4s2.76-1.19,2.76-3.4v-15.48c0-2.21-.98-3.4-2.76-3.4s-2.77,1.19-2.77,3.4Z"/>
        </g>
        <g>
          <path class="cls-1" d="M110.72,407.09h-46.06v-30.79c0-8.95-.49-14.54-1.48-16.76-.98-2.22-3.16-3.33-6.51-3.33-3.79,0-6.2,1.35-7.22,4.05-1.02,2.7-1.53,8.53-1.53,17.5v82.27c0,8.61.51,14.22,1.53,16.85,1.02,2.63,3.32,3.94,6.89,3.94s5.67-1.32,6.73-3.95c1.06-2.63,1.59-8.81,1.59-18.54v-22.26h46.06v6.9c0,18.33-1.3,31.34-3.88,39-2.59,7.67-8.32,14.39-17.18,20.16-8.86,5.77-19.79,8.66-32.77,8.66s-24.62-2.44-33.37-7.33c-8.75-4.89-14.55-11.65-17.4-20.29s-4.27-21.64-4.27-39v-51.75c0-12.76.44-22.34,1.31-28.72.88-6.38,3.48-12.53,7.82-18.43,4.34-5.91,10.36-10.56,18.05-13.95,7.69-3.39,16.54-5.09,26.53-5.09,13.57,0,24.76,2.62,33.59,7.87,8.82,5.24,14.62,11.78,17.4,19.61,2.77,7.83,4.16,20.01,4.16,36.55v16.83Z"/>
          <path class="cls-1" d="M230.08,329.96v177.13h-40.37l-23.96-80.52v80.52h-38.51v-177.13h38.51l25.82,79.76v-79.76h38.51Z"/>
          <path class="cls-1" d="M248.57,329.96h45.95c14.51,0,25.51,1.13,32.99,3.39,7.48,2.26,13.51,6.83,18.11,13.72,4.59,6.89,6.89,17.98,6.89,33.29,0,10.35-1.62,17.57-4.87,21.65-3.25,4.08-9.65,7.22-19.2,9.4,10.65,2.41,17.87,6.4,21.66,11.99,3.79,5.58,5.69,14.14,5.69,25.67v16.42c0,11.97-1.37,20.84-4.1,26.6-2.73,5.77-7.09,9.71-13.07,11.82-5.98,2.12-18.23,3.17-36.76,3.17h-53.28v-177.13ZM294.63,360.27v39.39c1.97-.07,3.5-.11,4.59-.11,4.52,0,7.4-1.11,8.64-3.34,1.24-2.22,1.86-8.59,1.86-19.09,0-5.54-.51-9.43-1.53-11.65-1.02-2.22-2.35-3.63-3.99-4.21-1.64-.58-4.83-.91-9.57-.98ZM294.63,427.22v49.56c6.49-.22,10.63-1.24,12.42-3.06,1.79-1.82,2.68-6.31,2.68-13.46v-16.52c0-7.59-.8-12.18-2.41-13.79-1.61-1.6-5.84-2.52-12.69-2.73Z"/>
        </g>
      </g>
    </g>
  </g>
</svg>